# File created by Blade
# Date/Time:  Fri Jan 16 17:18:57 2015
#---------------------------------------------------------
:version 1.10
:name HOM
:units
  mass 1.0
  length 1.000000
  angle deg
:documentation
     Acclaim Skeleton File
:root
   axis xyz
   order TX TY TZ RX RY RZ
   position 0.000000 0.000000 0.000000
   orientation 0 0 0
:bonedata
   begin
      id 1
      name Spine_dum
      direction 0.000000 1.000000 0.000000
      length 7.170412
      axis 0.0 0.0 0.0 xyz
   end
   begin
      id 2
      name LeftUpLeg_dum
      direction 1.000000 0.000000 0.000000
      length 4.318350
      axis 0.0 0.0 0.0 xyz
   end
   begin
      id 3
      name RightUpLeg_dum
      direction -1.000000 0.000000 0.000000
      length 4.318350
      axis 0.0 0.0 0.0 xyz
   end
   begin
      id 4
      name Spine
      direction 0.000000 1.000000 0.000000
      length 0.000000
      axis 0.0 0.0 0.0 xyz
      dof rx ry rz
   end
   begin
      id 5
      name Spine_dum1
      direction 0.000000 1.000000 0.000000
      length 14.276153
      axis 0.0 0.0 0.0 xyz
   end
   begin
      id 6
      name Spine_dum2
      direction 0.000000 1.000000 0.000000
      length 10.718243
      axis 0.0 0.0 0.0 xyz
   end
   begin
      id 7
      name Spine_dum3
      direction 0.000000 1.000000 0.000000
      length 10.718243
      axis 0.0 0.0 0.0 xyz
   end
   begin
      id 8
      name Head
      direction 0.000000 1.000000 0.000000
      length 4.527550
      axis 0.0 0.0 0.0 xyz
      dof rx ry rz
   end
   begin
      id 9
      name LeftShoulder
      direction 1.000000 0.000000 0.000000
      length 7.058872
      axis 0.0 0.0 -90.0 xyz
      dof rx ry rz
   end
   begin
      id 10
      name LeftArm
      direction 1.000000 0.000000 0.000000
      length 10.955525
      axis 0.0 0.0 -90.0 xyz
      dof rx ry rz
   end
   begin
      id 11
      name LeftForeArm
      direction 1.000000 0.000000 0.000000
      length 8.193716
      axis 0.0 0.0 -90.0 xyz
      dof ry rz rx
   end
   begin
      id 12
      name LeftHand
      direction 0.000000 0.000000 0.000000
      length 0.000000
      axis 0.0 0.0 -90.0 xyz
      dof rx ry rz
   end
   begin
      id 13
      name LeftHand_dum1
      direction 0.000000 0.000000 0.000000
      length 0.000000
      axis 0.0 0.0 -90.0 xyz
   end
   begin
      id 14
      name LeftHand_dum2
      direction 1.000000 0.000000 0.000000
      length 3.937000
      axis 0.0 0.0 -90.0 xyz
   end
   begin
      id 15
      name LeftHandThumb1
      direction 0.000000 0.000000 1.000000
      length 3.937000
      axis 0.0 0.0 -90.0 xyz
      dof rx rz ry
   end
   begin
      id 16
      name RightShoulder
      direction -1.000000 0.000000 0.000000
      length 7.058872
      axis 0.0 0.0 90.0 xyz
      dof rx ry rz
   end
   begin
      id 17
      name RightArm
      direction -1.000000 0.000000 0.000000
      length 10.955525
      axis 0.0 0.0 90.0 xyz
      dof rx ry rz
   end
   begin
      id 18
      name RightForeArm
      direction -1.000000 0.000000 0.000000
      length 8.193716
      axis 0.0 0.0 90.0 xyz
      dof ry rz rx
   end
   begin
      id 19
      name RightHand
      direction 0.000000 0.000000 0.000000
      length 0.000000
      axis 0.0 0.0 90.0 xyz
      dof rx ry rz
   end
   begin
      id 20
      name RightHand_dum1
      direction 0.000000 0.000000 0.000000
      length 0.000000
      axis 0.0 0.0 90.0 xyz
   end
   begin
      id 21
      name RightHand_dum2
      direction -1.000000 0.000000 0.000000
      length 3.937000
      axis 0.0 0.0 90.0 xyz
   end
   begin
      id 22
      name RightHandThumb1
      direction 0.000000 0.000000 1.000000
      length 3.937000
      axis 0.0 0.0 90.0 xyz
      dof rx rz ry
   end
   begin
      id 23
      name LeftUpLeg
      direction 0.000000 -1.000000 0.000000
      length 17.323638
      axis 0.0 0.0 0.0 xyz
      dof rx ry rz
   end
   begin
      id 24
      name LeftLeg
      direction 0.000000 -1.000000 0.000000
      length 16.270368
      axis 0.0 0.0 0.0 xyz
      dof rx ry rz
   end
   begin
      id 25
      name LeftFoot
      direction 0.000000 -0.258819 0.965926
      length 4.922846
      axis 15.0 0.0 0.0 xyz
      dof rx ry rz
   end
   begin
      id 26
      name LeftToeBase
      direction 0.000000 0.000000 1.000000
      length 2.952750
      axis 0.0 0.0 0.0 xyz
      dof rx ry rz
   end
   begin
      id 27
      name RightUpLeg
      direction 0.000000 -1.000000 0.000000
      length 17.323638
      axis 0.0 0.0 0.0 xyz
      dof rx ry rz
   end
   begin
      id 28
      name RightLeg
      direction 0.000000 -1.000000 0.000000
      length 16.270368
      axis 0.0 0.0 0.0 xyz
      dof rx ry rz
   end
   begin
      id 29
      name RightFoot
      direction 0.000000 -0.258819 0.965926
      length 4.922846
      axis 15.0 0.0 0.0 xyz
      dof rx ry rz
   end
   begin
      id 30
      name RightToeBase
      direction 0.000000 0.000000 1.000000
      length 2.952750
      axis 0.0 0.0 0.0 xyz
      dof rx ry rz
   end
:hierarchy
   begin
      root Spine_dum LeftUpLeg_dum RightUpLeg_dum
      Spine_dum Spine
      LeftUpLeg_dum LeftUpLeg
      RightUpLeg_dum RightUpLeg
      Spine Spine_dum1 Spine_dum2 Spine_dum3
      Spine_dum1 Head
      Spine_dum2 LeftShoulder
      Spine_dum3 RightShoulder
      LeftShoulder LeftArm
      LeftArm LeftForeArm
      LeftForeArm LeftHand
      LeftHand LeftHand_dum1 LeftHand_dum2
      LeftHand_dum1 LeftHandThumb1
      RightShoulder RightArm
      RightArm RightForeArm
      RightForeArm RightHand
      RightHand RightHand_dum1 RightHand_dum2
      RightHand_dum1 RightHandThumb1
      LeftUpLeg LeftLeg
      LeftLeg LeftFoot
      LeftFoot LeftToeBase
      RightUpLeg RightLeg
      RightLeg RightFoot
      RightFoot RightToeBase
   end

# File created by Blade
# Date/Time:  Fri Jan 16 17:19:08 2015
# Frame Rate: 120.000 fps
#------------------------------------------------------
:FULLY-SPECIFIED
:DEGREES
273
root -5.302749 35.231239 -9.742002 -1.174195 -5.398089 -5.772779
Spine -1.925080 0.484735 10.012556
Head 5.872453 1.859764 -9.739533
LeftShoulder -21.442547 13.422211 -16.180743
LeftArm 19.066079 -6.375175 -75.992293
LeftForeArm 15.538337 0.000000 12.021368
LeftHand 0.335449 -0.000000 -5.411155
LeftHandThumb1 -26.253704 0.000000 33.147579
RightShoulder -9.531829 6.390095 -6.347751
RightArm -6.546061 67.509995 50.121842
RightForeArm 13.713416 -0.000000 154.546948
RightHand 14.534666 -0.000000 -16.254537
RightHandThumb1 -24.326973 -0.000000 -32.862282
LeftUpLeg 11.576726 14.363779 6.825984
LeftLeg -9.075758 -0.000000 0.000000
LeftFoot -15.876484 27.388284 -8.917291
LeftToeBase 22.422347 -0.000000 -0.000000
RightUpLeg 8.225682 -3.518258 4.008927
RightLeg -4.906943 -0.000000 0.000000
RightFoot -4.221599 -28.849058 3.489765
RightToeBase 13.804748 -0.000000 -0.000000
274
root -5.302553 35.230691 -9.740625 -1.171431 -5.371408 -5.767628
Spine -1.917796 0.459781 9.994132
Head 5.865137 1.887728 -9.690260
LeftShoulder -21.450535 13.432541 -16.166202
LeftArm 19.063793 -6.383927 -75.979114
LeftForeArm 15.567430 -0.000000 12.072765
LeftHand 0.274342 -0.000000 -5.590778
LeftHandThumb1 -26.253704 0.000000 33.147579
RightShoulder -9.399561 6.450338 -6.290609
RightArm -7.184224 67.667619 49.510220
RightForeArm 13.703908 -0.000000 153.730310
RightHand 14.587695 -0.000000 -15.948768
RightHandThumb1 -24.326973 -0.000000 -32.862282
LeftUpLeg 11.568736 14.341920 6.819980
LeftLeg -9.072732 -0.000000 0.000000
LeftFoot -15.875203 27.374840 -8.913106
LeftToeBase 22.410720 -0.000000 -0.000000
RightUpLeg 8.230095 -3.547823 4.006526
RightLeg -4.913892 -0.000000 0.000000
RightFoot -4.233216 -28.878153 3.410795
RightToeBase 13.951467 -0.000000 -0.000000
275
root -5.300108 35.230322 -9.738102 -1.167766 -5.361626 -5.765349
Spine -1.913977 0.444832 10.004798
Head 5.856913 1.928948 -9.689562
LeftShoulder -21.467190 13.447322 -16.184684
LeftArm 19.080376 -6.455213 -75.981780
LeftForeArm 15.590898 -0.000000 12.111189
LeftHand 0.310370 0.000000 -5.603339
LeftHandThumb1 -26.253704 0.000000 33.147579
RightShoulder -9.245243 6.397287 -6.224490
RightArm -7.599295 67.779633 49.067947
RightForeArm 13.587455 -0.000000 152.900463
RightHand 14.216007 0.000000 -15.873953
RightHandThumb1 -24.326973 -0.000000 -32.862282
LeftUpLeg 11.568571 14.337236 6.812297
LeftLeg -9.078062 -0.000000 0.000000
LeftFoot -15.871431 27.377277 -8.903210
LeftToeBase 22.418994 -0.000000 -0.000000
RightUpLeg 8.237894 -3.570601 3.996501
RightLeg -4.929707 -0.000000 0.000000
RightFoot -4.228186 -28.843898 3.481117
RightToeBase 13.834178 -0.000000 -0.000000
276
root -5.296442 35.230511 -9.735511 -1.155215 -5.375495 -5.759724
Spine -1.926224 0.445162 10.010722
Head 5.875267 1.964657 -9.677438
LeftShoulder -21.485795 13.456427 -16.198262
LeftArm 19.073645 -6.443753 -75.950117
LeftForeArm 15.542037 -0.000000 12.157187
LeftHand 0.372509 -0.000000 -5.473286
LeftHandThumb1 -26.253704 0.000000 33.147579
RightShoulder -9.106427 6.421305 -6.176686
RightArm -8.109948 67.738500 48.556932
RightForeArm 13.506267 -0.000000 151.975090
RightHand 14.032353 -0.000000 -15.911726
RightHandThumb1 -24.326973 -0.000000 -32.862282
LeftUpLeg 11.565267 14.347906 6.799256
LeftLeg -9.085060 -0.000000 0.000000
LeftFoot -15.879844 27.371540 -8.935713
LeftToeBase 22.430779 -0.000000 -0.000000
RightUpLeg 8.230351 -3.546589 3.986386
RightLeg -4.933384 -0.000000 0.000000
RightFoot -4.225882 -28.849865 3.509838
RightToeBase 13.789871 -0.000000 -0.000000
277
root -5.295435 35.229950 -9.734679 -1.144689 -5.363817 -5.762032
Spine -1.928270 0.432524 10.005693
Head 5.871209 1.980070 -9.635373
LeftShoulder -21.477767 13.457356 -16.181068
LeftArm 19.064063 -6.459035 -75.939411
LeftForeArm 15.505038 -0.000000 12.198968
LeftHand 0.436081 -0.000000 -5.336222
LeftHandThumb1 -26.253704 0.000000 33.147579
RightShoulder -8.929706 6.574141 -6.147878
RightArm -9.119172 67.735529 47.630121
RightForeArm 13.526877 -0.000000 150.924135
RightHand 13.731905 -0.000000 -15.844665
RightHandThumb1 -24.326973 -0.000000 -32.862282
LeftUpLeg 11.552037 14.332269 6.795839
LeftLeg -9.083316 -0.000000 0.000000
LeftFoot -15.881960 27.383697 -8.915771
LeftToeBase 22.423310 -0.000000 -0.000000
RightUpLeg 8.220802 -3.557701 3.986918
RightLeg -4.931176 -0.000000 0.000000
RightFoot -4.238682 -28.849588 3.497463
RightToeBase 13.821220 -0.000000 -0.000000
